<svg width="131" height="32" viewBox="0 0 131 32" fill="none" xmlns="http://www.w3.org/2000/svg">
<path fill-rule="evenodd" clip-rule="evenodd" d="M28.4214 15.037C30.6337 14.1525 32.036 12.96 32.036 11.4717C32.036 9.6966 30.0413 8.34416 27.0614 7.43245C26.4478 7.24226 25.789 7.0732 25.0999 6.92831C24.9548 6.23999 24.7856 5.58188 24.5951 4.96906C23.6825 1.99245 22.3284 0 20.5514 0C19.0614 0 17.8677 1.40076 16.9821 3.61057C16.9035 3.80981 16.8249 4.01811 16.7494 4.23246C16.5529 4.79396 16.3716 5.40076 16.2114 6.04076C16.1479 6.03774 16.0815 6.03774 16.018 6.03774C15.9545 6.03774 15.8881 6.03774 15.8246 6.04076C15.6674 5.40076 15.4861 4.79396 15.2866 4.23246C15.2111 4.02113 15.1355 3.81585 15.0569 3.6166C14.1714 1.40378 12.9746 0 11.4846 0C9.70755 0 8.3535 1.99245 7.44085 4.97207C7.25343 5.58491 7.08417 6.23999 6.93306 6.92831C6.24397 7.07623 5.58816 7.24528 4.97766 7.43245C1.99472 8.34416 0 9.6966 0 11.4717C0 12.96 1.4023 14.1525 3.61764 15.037C3.81708 15.1155 4.02265 15.1939 4.23722 15.2664C4.79932 15.4657 5.40377 15.6468 6.04755 15.8068V16.1932C5.40377 16.3532 4.79932 16.5343 4.23722 16.7336C4.02568 16.8061 3.82011 16.8815 3.62369 16.96C1.40532 17.8445 0 19.037 0 20.5283C0 22.3034 1.99472 23.6558 4.97766 24.5675C5.58816 24.7547 6.24397 24.9238 6.93306 25.0717C7.08114 25.757 7.25041 26.4121 7.44085 27.0249C8.35048 30.0045 9.70755 32 11.4846 32C12.9746 32 14.1714 30.5962 15.0569 28.3834C15.0927 28.2926 15.1278 28.2006 15.1627 28.1074C15.2043 27.9959 15.2455 27.8826 15.2866 27.7675C15.4861 27.206 15.6674 26.5992 15.8246 25.9592C15.8509 25.9605 15.8778 25.9612 15.9048 25.9617C15.9427 25.9623 15.9809 25.9623 16.018 25.9623C16.0815 25.9623 16.1479 25.9623 16.2114 25.9592C16.3716 26.5992 16.5529 27.206 16.7494 27.7675C16.8249 27.9819 16.9035 28.1902 16.9821 28.3894C17.8677 30.5992 19.0614 32 20.5514 32C22.3284 32 23.6825 30.0076 24.5951 27.0279C24.7856 26.4151 24.9548 25.76 25.0999 25.0717C25.789 24.9268 26.4478 24.7577 27.0614 24.5675C30.0413 23.6558 32.036 22.3034 32.036 20.5283C32.036 19.04 30.6307 17.8445 28.4153 16.96C28.3204 16.9227 28.2241 16.886 28.1265 16.8497C28.0189 16.8097 27.9097 16.7702 27.7988 16.7306C27.2367 16.5313 26.6292 16.3502 25.9884 16.1932C25.9915 16.1298 25.9915 16.0634 25.9915 16C25.9915 15.9366 25.9915 15.8702 25.9884 15.8068C26.6292 15.6498 27.2367 15.4687 27.7988 15.2694C27.8968 15.235 27.9934 15.1999 28.0886 15.1644C28.2019 15.1223 28.313 15.0796 28.4214 15.037ZM14.7033 22.3215C14.6127 22.9645 14.5099 23.5683 14.395 24.1268C14.2499 24.1238 14.1049 24.1177 13.9628 24.1117C13.4763 24.0936 13.0109 24.0694 12.5575 24.0362C11.7808 23.9849 11.0524 23.9155 10.3664 23.8309C10.5114 24.5374 10.6686 25.1562 10.8318 25.6936C11.2519 25.7358 11.675 25.7751 12.1042 25.8083C12.7177 25.8596 13.3402 25.8959 13.9659 25.92C13.7755 26.6023 13.5699 27.197 13.3614 27.7072C12.6663 29.4038 11.9319 30.1887 11.4846 30.1887C11.0101 30.1887 10.2032 29.2951 9.4718 27.354C9.26321 26.8015 9.05772 26.1615 8.8734 25.434C8.72531 24.8604 8.58622 24.2325 8.46234 23.5472C8.35653 22.9555 8.25987 22.3215 8.17826 21.6453C8.09363 20.96 8.02412 20.2325 7.9727 19.4566C7.30176 19.5985 6.71244 19.7555 6.19867 19.9124C6.21254 20.091 6.22744 20.2685 6.24316 20.4449C6.26522 20.6921 6.28883 20.9373 6.31348 21.1804C6.38601 21.8475 6.47367 22.5027 6.57342 23.1366C5.84508 22.9525 5.20433 22.7472 4.65123 22.5389C2.70794 21.8083 1.81336 21.0022 1.81336 20.5283C1.81336 20.0815 2.59918 19.3479 4.29765 18.6536C4.80839 18.4453 5.40377 18.24 6.08681 18.0498C6.3286 17.9804 6.57947 17.914 6.84237 17.8506C7.03584 17.8045 7.23447 17.7584 7.43959 17.7135C7.58377 17.682 7.73112 17.6511 7.88209 17.6211C8.44116 17.5064 9.04561 17.4038 9.68939 17.3132C10.6474 17.1774 11.7022 17.0717 12.8476 17.0022C13.1741 18.0287 13.984 18.8408 15.0146 19.1668C14.9451 20.314 14.8393 21.3676 14.7033 22.3215ZM12.8476 14.9978C11.6992 14.9283 10.6444 14.8226 9.68939 14.6868C9.04561 14.5962 8.44116 14.4936 7.88209 14.3789C7.88511 14.234 7.89116 14.0891 7.89714 13.9472C7.91529 13.4611 7.93949 12.9962 7.9727 12.5434C8.02412 11.7675 8.09363 11.04 8.17826 10.3547C7.47103 10.5026 6.85145 10.6596 6.31348 10.8196C6.2712 11.2362 6.23194 11.6589 6.19867 12.0875C6.14731 12.7004 6.11101 13.3223 6.08681 13.9502C5.40377 13.76 4.80839 13.5547 4.29765 13.3464C2.59918 12.6521 1.81336 11.9185 1.81336 11.4717C1.81336 10.9977 2.70794 10.1917 4.65123 9.46114C5.20433 9.24982 5.84508 9.04754 6.57342 8.86339C7.14762 8.71547 7.77628 8.5766 8.46234 8.45283C9.05469 8.34718 9.68939 8.25057 10.3664 8.16906C11.0524 8.08454 11.7808 8.01509 12.5575 7.96377C12.4155 7.29358 12.2613 6.70491 12.1042 6.1917C11.675 6.2249 11.2519 6.26415 10.8318 6.30642C10.1638 6.37887 9.50803 6.46641 8.8734 6.56604C9.05772 5.8385 9.26321 5.19848 9.4718 4.64604C10.2032 2.70491 11.0101 1.81132 11.4846 1.81132C11.9319 1.81132 12.6663 2.59622 13.3614 4.29282C13.5699 4.80301 13.7755 5.39774 13.9659 6.08C14.0354 6.32151 14.0988 6.56906 14.1654 6.8317L14.395 7.87321C14.5099 8.43169 14.6127 9.03547 14.7033 9.67849C14.8393 10.6325 14.9421 11.686 15.0146 12.8332C13.987 13.1592 13.1741 13.9683 12.8476 14.9978ZM27.7383 18.6536C29.4368 19.3479 30.2226 20.0815 30.2226 20.5283C30.2226 21.0022 29.3281 21.8083 27.3848 22.5389C26.8317 22.7472 26.1909 22.9525 25.4626 23.1366C24.8884 23.2845 24.2597 23.4234 23.5737 23.5472C22.9813 23.6528 22.3466 23.7494 21.6696 23.8309C20.9836 23.9155 20.2552 23.9849 19.4785 24.0362C19.6205 24.7064 19.7747 25.2951 19.9318 25.8083C20.0556 25.7987 20.1788 25.7887 20.3016 25.7782C20.6047 25.7522 20.9052 25.7236 21.2042 25.6936C21.8722 25.6211 22.528 25.5336 23.1626 25.434C22.9783 26.1615 22.7758 26.8015 22.5642 27.354C21.8328 29.2951 21.0259 30.1887 20.5514 30.1887C20.1041 30.1887 19.3697 29.4038 18.6746 27.7072C18.4661 27.197 18.2605 26.6023 18.0701 25.92C18.0006 25.6785 17.9372 25.4309 17.8706 25.1683C17.7921 24.8393 17.7135 24.4921 17.641 24.1268C17.5261 23.5683 17.4233 22.9645 17.3327 22.3215C17.1967 21.3676 17.0939 20.314 17.0214 19.1668C18.049 18.8408 18.8619 18.0317 19.1883 17.0022C20.3368 17.0717 21.3916 17.1774 22.3466 17.3132C22.9904 17.4038 23.5948 17.5064 24.1539 17.6211C24.1509 17.766 24.1448 17.9109 24.1389 18.0528C24.1207 18.5389 24.0965 19.0038 24.0633 19.4566C24.0119 20.2325 23.9424 20.96 23.8577 21.6453C24.565 21.5004 25.1845 21.3434 25.7225 21.1804C25.7424 20.9833 25.7615 20.7855 25.7798 20.5867C25.8004 20.3623 25.8197 20.1367 25.8373 19.9094C25.8887 19.2966 25.925 18.6747 25.9492 18.0498C26.6322 18.24 27.2276 18.4453 27.7383 18.6536ZM25.9492 13.9502C25.7074 14.0196 25.4595 14.083 25.1966 14.1494L24.1539 14.3789C23.5948 14.4936 22.9904 14.5962 22.3466 14.6868C21.3916 14.8226 20.3368 14.9283 19.1883 14.9978C18.8619 13.9713 18.052 13.1592 17.0214 12.8332C17.0909 11.686 17.1967 10.6325 17.3327 9.67849C17.4233 9.03547 17.5261 8.43169 17.641 7.87321C17.7136 7.87472 17.7862 7.87699 17.8584 7.87964C17.9305 7.88228 18.0022 7.88528 18.0732 7.8883C18.5597 7.90642 19.0251 7.93057 19.4785 7.96377C20.2552 8.01509 20.9836 8.08454 21.6696 8.16906C21.5246 7.46263 21.3674 6.84377 21.2042 6.30642C21.0894 6.29488 20.9745 6.28357 20.8592 6.27253C20.5526 6.24316 20.2438 6.21584 19.9318 6.1917C19.3183 6.14039 18.6958 6.10414 18.0701 6.08C18.2605 5.39774 18.4661 4.80301 18.6746 4.29282C19.3697 2.59622 20.1041 1.81132 20.5514 1.81132C21.0259 1.81132 21.8328 2.70491 22.5642 4.64604C22.7758 5.19848 22.9783 5.8385 23.1626 6.56604C23.3107 7.13963 23.4498 7.76754 23.5737 8.45283C23.6795 9.04453 23.7761 9.67849 23.8577 10.3547C23.9424 11.04 24.0119 11.7675 24.0633 12.5434C24.7342 12.4015 25.3236 12.2475 25.8373 12.0906C25.8041 11.6619 25.7648 11.2392 25.7225 10.8196C25.65 10.1525 25.5623 9.49736 25.4626 8.86339C26.1909 9.04754 26.8317 9.24982 27.3848 9.46114C29.3281 10.1917 30.2226 10.9977 30.2226 11.4717C30.2226 11.9185 29.4368 12.6521 27.7383 13.3464C27.2276 13.5547 26.6322 13.76 25.9492 13.9502Z" fill="black"/>
<path d="M44.3457 12.6551C42.8103 12.6551 41.8523 13.3524 41.3627 14.1705V9.57284H39.2864V22.2008H41.3627V17.2196C41.3627 15.3208 42.1485 14.3457 43.5598 14.3457C45.2161 14.3457 45.3914 15.5472 45.3914 16.957V22.2008H47.4677V16.3834C47.4677 14.1011 46.6667 12.6551 44.3457 12.6551Z" fill="black"/>
<path d="M52.9863 20.7215C54.3796 20.7215 55.0959 19.7978 55.0959 17.8989V12.8272H57.1873V22.1977H55.0959V20.8754C54.5549 21.7811 53.7359 22.4242 52.2368 22.4242C49.9338 22.4242 49.133 20.9811 49.133 18.6808V12.8302H51.2092V18.1253C51.2092 19.5381 51.3815 20.7215 52.9863 20.7215Z" fill="black"/>
<path d="M69.8113 12.6551C68.5026 12.6551 67.3874 13.1773 66.6379 14.2762C66.2208 13.2498 65.3655 12.6551 63.8997 12.6551C62.4339 12.6551 61.5635 13.3524 61.0739 14.1705V12.8302H58.9976V22.2008H61.0739V17.2015C61.0739 15.3208 61.8234 14.3457 63.114 14.3457C64.7187 14.3457 64.9092 15.5472 64.9092 16.957V22.2008H66.9854V17.2015C66.9854 15.3208 67.7349 14.3457 69.0254 14.3457C70.6303 14.3457 70.8207 15.5472 70.8207 16.957V22.2008H72.897V16.3834C72.897 14.1011 72.078 12.6551 69.8113 12.6551Z" fill="black"/>
<path fill-rule="evenodd" clip-rule="evenodd" d="M78.4851 12.6038C81.1024 12.6038 82.4443 13.7871 82.4443 16.5041H82.4412V18.6113C82.4412 20.0724 82.5289 21.3283 82.7042 22.1977H80.6128C80.5433 21.7449 80.507 21.3615 80.507 20.96C79.8784 21.9351 78.8508 22.4242 77.3155 22.4242C75.5566 22.4242 74.0908 21.4128 74.0908 19.7072C74.0908 17.4612 76.6174 16.7638 80.4012 16.3985V16.1902C80.4012 14.7291 79.6185 14.1887 78.467 14.1887C77.3155 14.1887 76.6023 14.7804 76.5146 15.8249H74.4746C74.6318 13.8928 76.2003 12.6038 78.4851 12.6038ZM77.929 20.9117C79.289 20.9117 80.4919 20.3019 80.4919 18.2823V17.8295C77.9441 18.0709 76.3061 18.4362 76.3061 19.6045C76.3061 20.3894 76.9528 20.9117 77.929 20.9117Z" fill="black"/>
<path d="M89.2656 12.6551C87.7303 12.6551 86.7722 13.3524 86.2827 14.1705V12.8302H84.2063V22.2008H86.2827V17.2196C86.2827 15.3208 87.0684 14.3457 88.4799 14.3457C90.1361 14.3457 90.3113 15.5472 90.3113 16.957V22.2008H92.3876V16.3834C92.3876 14.1011 91.5867 12.6551 89.2656 12.6551Z" fill="black"/>
<path d="M100.508 10.3909L100.505 10.3879V10.3909H98.4321V12.8302H96.9512V14.397H98.4321V19.7434C98.4321 21.7811 98.9912 22.1977 100.977 22.1977H102.388V20.5947H101.587C100.663 20.5947 100.505 20.3683 100.505 19.4264V14.3939H102.388V12.8272H100.505V10.3909H100.508Z" fill="black"/>
<path fill-rule="evenodd" clip-rule="evenodd" d="M107.426 12.6219C104.794 12.6219 102.703 14.5388 102.703 17.4973C102.703 20.4559 104.516 22.4272 107.514 22.4272C109.642 22.4272 111.298 21.2438 111.89 19.3962H109.868C109.485 20.1811 108.753 20.7185 107.481 20.7185C106.278 20.7185 105.039 20.003 104.83 18.089H111.978C111.996 17.914 111.996 17.7751 111.996 17.6362C111.996 14.7804 110.234 12.6189 107.426 12.6189V12.6219ZM104.863 16.6098C105.142 14.8347 106.311 14.3094 107.426 14.3094C108.823 14.3094 109.744 15.2513 109.85 16.6098H104.863Z" fill="black"/>
<path d="M114.909 17.4973C114.909 19.7615 116.112 20.7185 117.367 20.7185C118.588 20.7185 119.425 19.9517 119.633 18.9947H121.673C121.235 21.1562 119.337 22.4272 117.261 22.4272C114.435 22.4272 112.727 20.3351 112.727 17.4973C112.727 14.6596 114.559 12.6219 117.367 12.6219C119.509 12.6219 121.22 14.0136 121.568 16.0694H119.546C119.319 14.9736 118.449 14.3457 117.367 14.3457C116.094 14.3457 114.909 15.2332 114.909 17.4973Z" fill="black"/>
<path d="M127.878 12.6551C126.343 12.6551 125.385 13.3524 124.895 14.1705V9.57284H122.819V22.2008H124.895V17.2196C124.895 15.3208 125.681 14.3457 127.092 14.3457C128.748 14.3457 128.924 15.5472 128.924 16.957V22.2008H131V16.3834C131 14.1011 130.199 12.6551 127.878 12.6551Z" fill="black"/>
<path d="M96.6792 20.9117C96.6792 21.662 96.0704 22.2702 95.3192 22.2702C94.5681 22.2702 93.9592 21.662 93.9592 20.9117C93.9592 20.1614 94.5681 19.5532 95.3192 19.5532C96.0704 19.5532 96.6792 20.1614 96.6792 20.9117Z" fill="black"/>
</svg>
