<svg width="145" height="35" viewBox="0 0 145 35" fill="none" xmlns="http://www.w3.org/2000/svg">
<path fill-rule="evenodd" clip-rule="evenodd" d="M31.4588 16.4467C33.9075 15.4792 35.4597 14.175 35.4597 12.5472C35.4597 10.6057 33.2518 9.12642 29.9534 8.12924C29.2743 7.92122 28.5451 7.73632 27.7823 7.57783C27.6218 6.82499 27.4344 6.10519 27.2236 5.43491C26.2134 2.17924 24.7147 0 22.7477 0C21.0985 0 19.7772 1.53208 18.797 3.94906C18.71 4.16698 18.623 4.39481 18.5394 4.62925C18.322 5.2434 18.1212 5.90708 17.9439 6.60708C17.8737 6.60377 17.8001 6.60377 17.7298 6.60377C17.6596 6.60377 17.586 6.60377 17.5158 6.60708C17.3418 5.90708 17.1411 5.2434 16.9203 4.62925C16.8367 4.39812 16.7531 4.17359 16.6661 3.95565C15.6859 1.53539 14.3612 0 12.712 0C10.745 0 9.24625 2.17924 8.23605 5.4382C8.02861 6.10849 7.84125 6.82499 7.67399 7.57783C6.91126 7.73962 6.18537 7.92453 5.50962 8.12924C2.2079 9.12642 0 10.6057 0 12.5472C0 14.175 1.55216 15.4792 4.00426 16.4467C4.22502 16.5325 4.45255 16.6184 4.69005 16.6976C5.31222 16.9156 5.98127 17.1137 6.69386 17.2887V17.7113C5.98127 17.8863 5.31222 18.0844 4.69005 18.3024C4.4559 18.3816 4.22836 18.4642 4.01096 18.55C1.55551 19.5174 0 20.8217 0 22.4528C0 24.3943 2.2079 25.8736 5.50962 26.8708C6.18537 27.0755 6.91126 27.2604 7.67399 27.4222C7.83791 28.1717 8.02526 28.8882 8.23605 29.5585C9.2429 32.8175 10.745 35 12.712 35C14.3612 35 15.6859 33.4646 16.6661 31.0443C16.7057 30.9451 16.7446 30.8444 16.7831 30.7425C16.8292 30.6205 16.8747 30.4966 16.9203 30.3707C17.1411 29.7566 17.3418 29.0929 17.5158 28.3929C17.5449 28.3943 17.5747 28.3951 17.6046 28.3956C17.6465 28.3962 17.6888 28.3962 17.7298 28.3962C17.8001 28.3962 17.8737 28.3962 17.9439 28.3929C18.1212 29.0929 18.322 29.7566 18.5394 30.3707C18.623 30.6052 18.71 30.833 18.797 31.051C19.7772 33.4679 21.0985 35 22.7477 35C24.7147 35 26.2134 32.8208 27.2236 29.5618C27.4344 28.8915 27.6218 28.175 27.7823 27.4222C28.5451 27.2637 29.2743 27.0788 29.9534 26.8708C33.2518 25.8736 35.4597 24.3943 35.4597 22.4528C35.4597 20.825 33.9042 19.5174 31.4521 18.55C31.3471 18.5092 31.2405 18.4691 31.1323 18.4294C31.0133 18.3856 30.8924 18.3424 30.7696 18.2991C30.1475 18.0811 29.4751 17.883 28.7658 17.7113C28.7692 17.642 28.7692 17.5693 28.7692 17.5C28.7692 17.4307 28.7692 17.358 28.7658 17.2887C29.4751 17.117 30.1475 16.9189 30.7696 16.7009C30.8781 16.6632 30.9851 16.6249 31.0904 16.5861C31.2158 16.54 31.3388 16.4934 31.4588 16.4467ZM16.2746 24.4141C16.1743 25.1174 16.0606 25.7778 15.9334 26.3887C15.7728 26.3854 15.6123 26.3788 15.4551 26.3722C14.9165 26.3524 14.4013 26.3259 13.8995 26.2896C13.0398 26.2335 12.2336 26.1575 11.4742 26.0651C11.6348 26.8377 11.8088 27.5146 11.9894 28.1024C12.4544 28.1486 12.9227 28.1915 13.3978 28.2278C14.0769 28.284 14.7659 28.3236 15.4584 28.35C15.2477 29.0962 15.0202 29.7467 14.7894 30.3047C14.0199 32.1604 13.2071 33.0189 12.712 33.0189C12.1867 33.0189 11.2936 32.0415 10.4841 29.9184C10.2532 29.3142 10.0257 28.6142 9.8217 27.8184C9.65779 27.191 9.50384 26.5043 9.36671 25.7547C9.24959 25.1076 9.1426 24.4141 9.05228 23.6745C8.9586 22.925 8.88166 22.1293 8.82474 21.2806C8.0821 21.4359 7.4298 21.6075 6.86112 21.7792C6.87647 21.9745 6.89297 22.1687 6.91037 22.3617C6.93479 22.632 6.96092 22.9001 6.9882 23.166C7.06848 23.8958 7.16551 24.6123 7.27593 25.3057C6.46975 25.1043 5.76052 24.8797 5.14831 24.6519C2.99733 23.8528 2.00715 22.9712 2.00715 22.4528C2.00715 21.9642 2.87695 21.1618 4.75694 20.4024C5.32227 20.1745 5.98127 19.95 6.73731 19.742C7.00494 19.6661 7.28262 19.5934 7.57362 19.5241C7.78776 19.4736 8.00762 19.4232 8.23466 19.3742C8.39425 19.3397 8.55735 19.3058 8.72445 19.2731C9.34327 19.1476 10.0123 19.0354 10.7249 18.9363C11.7853 18.7877 12.9528 18.6722 14.2207 18.5962C14.582 19.7189 15.4785 20.6071 16.6192 20.9637C16.5423 22.2184 16.4252 23.3708 16.2746 24.4141ZM14.2207 16.4038C12.9495 16.3278 11.782 16.2123 10.7249 16.0637C10.0123 15.9646 9.34327 15.8524 8.72445 15.7269C8.7278 15.5684 8.73449 15.4099 8.74111 15.2547C8.7612 14.7231 8.78799 14.2146 8.82474 13.7193C8.88166 12.8707 8.9586 12.075 9.05228 11.3255C8.26946 11.4873 7.58366 11.659 6.9882 11.834C6.9414 12.2896 6.89795 12.7519 6.86112 13.2207C6.80428 13.891 6.76409 14.5712 6.73731 15.258C5.98127 15.05 5.32227 14.8255 4.75694 14.5976C2.87695 13.8382 2.00715 13.0358 2.00715 12.5472C2.00715 12.0288 2.99733 11.1472 5.14831 10.3481C5.76052 10.117 6.46975 9.89575 7.27593 9.69433C7.91149 9.53255 8.60733 9.38065 9.36671 9.24528C10.0224 9.12972 10.7249 9.02406 11.4742 8.93491C12.2336 8.84246 13.0398 8.76651 13.8995 8.71038C13.7423 7.97735 13.5717 7.3335 13.3978 6.77217C12.9227 6.80849 12.4544 6.85142 11.9894 6.89765C11.25 6.97689 10.5242 7.07264 9.8217 7.1816C10.0257 6.38586 10.2532 5.68584 10.4841 5.08161C11.2936 2.9585 12.1867 1.98113 12.712 1.98113C13.2071 1.98113 14.0199 2.83961 14.7894 4.69527C15.0202 5.25329 15.2477 5.90378 15.4584 6.65C15.5353 6.91415 15.6056 7.18491 15.6792 7.47217L15.9334 8.61133C16.0606 9.22217 16.1743 9.88254 16.2746 10.5858C16.4252 11.6293 16.5389 12.7816 16.6192 14.0363C15.4818 14.3929 14.582 15.2778 14.2207 16.4038ZM30.7027 20.4024C32.5827 21.1618 33.4525 21.9642 33.4525 22.4528C33.4525 22.9712 32.4624 23.8528 30.3114 24.6519C29.6992 24.8797 28.9899 25.1043 28.1838 25.3057C27.5482 25.4675 26.8524 25.6193 26.093 25.7547C25.4373 25.8703 24.7348 25.976 23.9855 26.0651C23.2261 26.1575 22.4199 26.2335 21.5601 26.2896C21.7174 27.0226 21.888 27.6665 22.0619 28.2278C22.1989 28.2173 22.3353 28.2063 22.4712 28.1949C22.8067 28.1665 23.1393 28.1352 23.4703 28.1024C24.2096 28.0231 24.9355 27.9273 25.638 27.8184C25.434 28.6142 25.2099 29.3142 24.9756 29.9184C24.1661 32.0415 23.273 33.0189 22.7477 33.0189C22.2526 33.0189 21.4398 32.1604 20.6703 30.3047C20.4395 29.7467 20.212 29.0962 20.0013 28.35C19.9243 28.0859 19.8541 27.8151 19.7804 27.5278C19.6935 27.1679 19.6066 26.7882 19.5263 26.3887C19.3991 25.7778 19.2854 25.1174 19.1851 24.4141C19.0345 23.3708 18.9208 22.2184 18.8405 20.9637C19.9778 20.6071 20.8777 19.7222 21.239 18.5962C22.5102 18.6722 23.6777 18.7877 24.7348 18.9363C25.4474 19.0354 26.1164 19.1476 26.7352 19.2731C26.7319 19.4316 26.7252 19.5901 26.7186 19.7453C26.6985 20.2769 26.6717 20.7854 26.6349 21.2806C26.578 22.1293 26.5011 22.925 26.4074 23.6745C27.1902 23.516 27.876 23.3443 28.4715 23.166C28.4935 22.9505 28.5147 22.7341 28.5349 22.5167C28.5577 22.2713 28.5791 22.0245 28.5986 21.7759C28.6554 21.1057 28.6956 20.4255 28.7224 19.742C29.4784 19.95 30.1374 20.1745 30.7027 20.4024ZM28.7224 15.258C28.4547 15.3339 28.1804 15.4033 27.8894 15.4759L26.7352 15.7269C26.1164 15.8524 25.4474 15.9646 24.7348 16.0637C23.6777 16.2123 22.5102 16.3278 21.239 16.4038C20.8777 15.2811 19.9812 14.3929 18.8405 14.0363C18.9174 12.7816 19.0345 11.6293 19.1851 10.5858C19.2854 9.88254 19.3991 9.22217 19.5263 8.61133C19.6066 8.61298 19.687 8.61546 19.767 8.61836C19.8468 8.62124 19.9261 8.62453 20.0046 8.62783C20.5432 8.64764 21.0584 8.67406 21.5601 8.71038C22.4199 8.76651 23.2261 8.84246 23.9855 8.93491C23.8249 8.16225 23.6509 7.48537 23.4703 6.89765C23.3433 6.88503 23.216 6.87266 23.0885 6.86058C22.749 6.82846 22.4072 6.79857 22.0619 6.77217C21.3828 6.71605 20.6938 6.6764 20.0013 6.65C20.212 5.90378 20.4395 5.25329 20.6703 4.69527C21.4398 2.83961 22.2526 1.98113 22.7477 1.98113C23.273 1.98113 24.1661 2.9585 24.9756 5.08161C25.2099 5.68584 25.434 6.38586 25.638 7.1816C25.8019 7.80897 25.9559 8.49575 26.093 9.24528C26.2101 9.89246 26.3171 10.5858 26.4074 11.3255C26.5011 12.075 26.578 12.8707 26.6349 13.7193C27.3776 13.5642 28.0299 13.3958 28.5986 13.2241C28.5617 12.7552 28.5183 12.2929 28.4715 11.834C28.3912 11.1042 28.2942 10.3877 28.1838 9.69433C28.9899 9.89575 29.6992 10.117 30.3114 10.3481C32.4624 11.1472 33.4525 12.0288 33.4525 12.5472C33.4525 13.0358 32.5827 13.8382 30.7027 14.5976C30.1374 14.8255 29.4784 15.05 28.7224 15.258Z" fill="white"/>
<path d="M49.0849 13.8415C47.3855 13.8415 46.3251 14.6042 45.7831 15.499V10.4703H43.4849V24.2821H45.7831V18.834C45.7831 16.7571 46.6529 15.6906 48.2151 15.6906C50.0484 15.6906 50.2423 17.0047 50.2423 18.5467V24.2821H52.5406V17.9193C52.5406 15.4231 51.654 13.8415 49.0849 13.8415Z" fill="white"/>
<path d="M58.649 22.6642C60.1912 22.6642 60.984 21.6538 60.984 19.5769V14.0297H63.2989V24.2788H60.984V22.8325C60.3852 23.8231 59.4786 24.5264 57.8194 24.5264C55.2703 24.5264 54.3838 22.9481 54.3838 20.4321V14.033H56.682V19.8245C56.682 21.3698 56.8727 22.6642 58.649 22.6642Z" fill="white"/>
<path d="M77.272 13.8415C75.8235 13.8415 74.5891 14.4127 73.7595 15.6146C73.2978 14.492 72.3512 13.8415 70.7287 13.8415C69.1062 13.8415 68.1428 14.6042 67.6009 15.499V14.033H65.3027V24.2821H67.6009V18.8141C67.6009 16.7571 68.4305 15.6906 69.859 15.6906C71.6352 15.6906 71.846 17.0047 71.846 18.5467V24.2821H74.1442V18.8141C74.1442 16.7571 74.9738 15.6906 76.4022 15.6906C78.1786 15.6906 78.3894 17.0047 78.3894 18.5467V24.2821H80.6875V17.9193C80.6875 15.4231 79.781 13.8415 77.272 13.8415Z" fill="white"/>
<path fill-rule="evenodd" clip-rule="evenodd" d="M86.8729 13.7854C89.7698 13.7854 91.2552 15.0797 91.2552 18.0514H91.2518V20.3561C91.2518 21.9542 91.3488 23.3278 91.5428 24.2788H89.2279C89.151 23.7835 89.1108 23.3642 89.1108 22.925C88.415 23.9915 87.2776 24.5264 85.5782 24.5264C83.6313 24.5264 82.0089 23.4203 82.0089 21.5547C82.0089 19.0981 84.8055 18.3354 88.9937 17.9359V17.708C88.9937 16.1099 88.1273 15.5189 86.8528 15.5189C85.5782 15.5189 84.7888 16.166 84.6918 17.3085H82.4337C82.6077 15.1953 84.3438 13.7854 86.8729 13.7854ZM86.2573 22.8722C87.7627 22.8722 89.0941 22.2052 89.0941 19.9962V19.501C86.2741 19.7651 84.461 20.1646 84.461 21.4424C84.461 22.301 85.1768 22.8722 86.2573 22.8722Z" fill="white"/>
<path d="M98.8054 13.8415C97.106 13.8415 96.0456 14.6042 95.5037 15.499V14.033H93.2055V24.2821H95.5037V18.834C95.5037 16.7571 96.3734 15.6906 97.9357 15.6906C99.7689 15.6906 99.9629 17.0047 99.9629 18.5467V24.2821H102.261V17.9193C102.261 15.4231 101.375 13.8415 98.8054 13.8415Z" fill="white"/>
<path d="M111.25 11.3651L111.246 11.3618V11.3651H108.952V14.033H107.312V15.7467H108.952V21.5943C108.952 23.8231 109.57 24.2788 111.768 24.2788H113.331V22.5255H112.444C111.42 22.5255 111.246 22.2778 111.246 21.2476V15.7434H113.331V14.0297H111.246V11.3651H111.25Z" fill="white"/>
<path fill-rule="evenodd" clip-rule="evenodd" d="M118.907 13.8052C115.993 13.8052 113.678 15.9019 113.678 19.1377C113.678 22.3736 115.686 24.5297 119.004 24.5297C121.359 24.5297 123.192 23.2354 123.848 21.2146H121.61C121.185 22.0731 120.376 22.6608 118.967 22.6608C117.636 22.6608 116.264 21.8783 116.034 19.7849H123.945C123.965 19.5934 123.965 19.4415 123.965 19.2896C123.965 16.166 122.015 13.8019 118.907 13.8019V13.8052ZM116.07 18.167C116.378 16.2255 117.673 15.6509 118.907 15.6509C120.453 15.6509 121.473 16.6811 121.59 18.167H116.07Z" fill="white"/>
<path d="M127.19 19.1377C127.19 21.6141 128.521 22.6608 129.91 22.6608C131.261 22.6608 132.188 21.8222 132.419 20.7754H134.677C134.191 23.1396 132.091 24.5297 129.792 24.5297C126.665 24.5297 124.775 22.2415 124.775 19.1377C124.775 16.034 126.802 13.8052 129.91 13.8052C132.281 13.8052 134.175 15.3273 134.559 17.5759H132.322C132.071 16.3773 131.107 15.6906 129.91 15.6906C128.501 15.6906 127.19 16.6613 127.19 19.1377Z" fill="white"/>
<path d="M141.544 13.8415C139.845 13.8415 138.784 14.6042 138.243 15.499V10.4703H135.944V24.2821H138.243V18.834C138.243 16.7571 139.112 15.6906 140.675 15.6906C142.508 15.6906 142.702 17.0047 142.702 18.5467V24.2821H145V17.9193C145 15.4231 144.113 13.8415 141.544 13.8415Z" fill="white"/>
<path d="M107.011 22.8722C107.011 23.6928 106.337 24.358 105.506 24.358C104.675 24.358 104.001 23.6928 104.001 22.8722C104.001 22.0515 104.675 21.3863 105.506 21.3863C106.337 21.3863 107.011 22.0515 107.011 22.8722Z" fill="white"/>
</svg>
