<svg width="177" height="51" viewBox="0 0 177 51" fill="none" xmlns="http://www.w3.org/2000/svg">
<rect width="177" height="51" rx="25.5" fill="#020000" fill-opacity="0.2"/>
<path fill-rule="evenodd" clip-rule="evenodd" d="M47.4588 24.4467C49.9075 23.4792 51.4597 22.175 51.4597 20.5472C51.4597 18.6057 49.2518 17.1264 45.9534 16.1292C45.2743 15.9212 44.5451 15.7363 43.7823 15.5778C43.6218 14.825 43.4344 14.1052 43.2236 13.4349C42.2134 10.1792 40.7147 8 38.7477 8C37.0985 8 35.7772 9.53208 34.797 11.9491C34.71 12.167 34.623 12.3948 34.5394 12.6293C34.322 13.2434 34.1212 13.9071 33.9439 14.6071C33.8737 14.6038 33.8001 14.6038 33.7298 14.6038C33.6596 14.6038 33.586 14.6038 33.5158 14.6071C33.3418 13.9071 33.1411 13.2434 32.9203 12.6293C32.8367 12.3981 32.7531 12.1736 32.6661 11.9557C31.6859 9.53539 30.3612 8 28.712 8C26.745 8 25.2462 10.1792 24.2361 13.4382C24.0286 14.1085 23.8413 14.825 23.674 15.5778C22.9113 15.7396 22.1854 15.9245 21.5096 16.1292C18.2079 17.1264 16 18.6057 16 20.5472C16 22.175 17.5522 23.4792 20.0043 24.4467C20.225 24.5325 20.4526 24.6184 20.6901 24.6976C21.3122 24.9156 21.9813 25.1137 22.6939 25.2887V25.7113C21.9813 25.8863 21.3122 26.0844 20.6901 26.3024C20.4559 26.3816 20.2284 26.4642 20.011 26.55C17.5555 27.5174 16 28.8217 16 30.4528C16 32.3943 18.2079 33.8736 21.5096 34.8708C22.1854 35.0755 22.9113 35.2604 23.674 35.4222C23.8379 36.1717 24.0253 36.8882 24.2361 37.5585C25.2429 40.8175 26.745 43 28.712 43C30.3612 43 31.6859 41.4646 32.6661 39.0443C32.7057 38.9451 32.7446 38.8444 32.7831 38.7425C32.8292 38.6205 32.8747 38.4966 32.9203 38.3707C33.1411 37.7566 33.3418 37.0929 33.5158 36.3929C33.5449 36.3943 33.5747 36.3951 33.6046 36.3956C33.6465 36.3962 33.6888 36.3962 33.7298 36.3962C33.8001 36.3962 33.8737 36.3962 33.9439 36.3929C34.1212 37.0929 34.322 37.7566 34.5394 38.3707C34.623 38.6052 34.71 38.833 34.797 39.051C35.7772 41.4679 37.0985 43 38.7477 43C40.7147 43 42.2134 40.8208 43.2236 37.5618C43.4344 36.8915 43.6218 36.175 43.7823 35.4222C44.5451 35.2637 45.2743 35.0788 45.9534 34.8708C49.2518 33.8736 51.4597 32.3943 51.4597 30.4528C51.4597 28.825 49.9042 27.5174 47.4521 26.55C47.3471 26.5092 47.2405 26.4691 47.1323 26.4294C47.0133 26.3856 46.8924 26.3424 46.7696 26.2991C46.1475 26.0811 45.4751 25.883 44.7658 25.7113C44.7692 25.642 44.7692 25.5693 44.7692 25.5C44.7692 25.4307 44.7692 25.358 44.7658 25.2887C45.4751 25.117 46.1475 24.9189 46.7696 24.7009C46.8781 24.6632 46.9851 24.6249 47.0904 24.5861C47.2158 24.54 47.3388 24.4934 47.4588 24.4467ZM32.2746 32.4141C32.1743 33.1174 32.0606 33.7778 31.9334 34.3887C31.7728 34.3854 31.6123 34.3788 31.4551 34.3722C30.9165 34.3524 30.4013 34.3259 29.8995 34.2896C29.0398 34.2335 28.2336 34.1575 27.4742 34.0651C27.6348 34.8377 27.8088 35.5146 27.9894 36.1024C28.4544 36.1486 28.9227 36.1915 29.3978 36.2278C30.0769 36.284 30.7659 36.3236 31.4584 36.35C31.2477 37.0962 31.0202 37.7467 30.7894 38.3047C30.0199 40.1604 29.2071 41.0189 28.712 41.0189C28.1867 41.0189 27.2936 40.0415 26.4841 37.9184C26.2532 37.3142 26.0257 36.6142 25.8217 35.8184C25.6578 35.191 25.5038 34.5043 25.3667 33.7547C25.2496 33.1076 25.1426 32.4141 25.0523 31.6745C24.9586 30.925 24.8817 30.1293 24.8247 29.2806C24.0821 29.4359 23.4298 29.6075 22.8611 29.7792C22.8765 29.9745 22.893 30.1687 22.9104 30.3617C22.9348 30.632 22.9609 30.9001 22.9882 31.166C23.0685 31.8958 23.1655 32.6123 23.2759 33.3057C22.4697 33.1043 21.7605 32.8797 21.1483 32.6519C18.9973 31.8528 18.0072 30.9712 18.0072 30.4528C18.0072 29.9642 18.877 29.1618 20.7569 28.4024C21.3223 28.1745 21.9813 27.95 22.7373 27.742C23.0049 27.6661 23.2826 27.5934 23.5736 27.5241C23.7878 27.4736 24.0076 27.4232 24.2347 27.3742C24.3942 27.3397 24.5573 27.3058 24.7244 27.2731C25.3433 27.1476 26.0123 27.0354 26.7249 26.9363C27.7853 26.7877 28.9528 26.6722 30.2207 26.5962C30.582 27.7189 31.4785 28.6071 32.6192 28.9637C32.5423 30.2184 32.4252 31.3708 32.2746 32.4141ZM30.2207 24.4038C28.9495 24.3278 27.782 24.2123 26.7249 24.0637C26.0123 23.9646 25.3433 23.8524 24.7244 23.7269C24.7278 23.5684 24.7345 23.4099 24.7411 23.2547C24.7612 22.7231 24.788 22.2146 24.8247 21.7193C24.8817 20.8707 24.9586 20.075 25.0523 19.3255C24.2695 19.4873 23.5837 19.659 22.9882 19.834C22.9414 20.2896 22.898 20.7519 22.8611 21.2207C22.8043 21.891 22.7641 22.5712 22.7373 23.258C21.9813 23.05 21.3223 22.8255 20.7569 22.5976C18.877 21.8382 18.0072 21.0358 18.0072 20.5472C18.0072 20.0288 18.9973 19.1472 21.1483 18.3481C21.7605 18.117 22.4697 17.8957 23.2759 17.6943C23.9115 17.5325 24.6073 17.3807 25.3667 17.2453C26.0224 17.1297 26.7249 17.0241 27.4742 16.9349C28.2336 16.8425 29.0398 16.7665 29.8995 16.7104C29.7423 15.9773 29.5717 15.3335 29.3978 14.7722C28.9227 14.8085 28.4544 14.8514 27.9894 14.8976C27.25 14.9769 26.5242 15.0726 25.8217 15.1816C26.0257 14.3859 26.2532 13.6858 26.4841 13.0816C27.2936 10.9585 28.1867 9.98113 28.712 9.98113C29.2071 9.98113 30.0199 10.8396 30.7894 12.6953C31.0202 13.2533 31.2477 13.9038 31.4584 14.65C31.5353 14.9142 31.6056 15.1849 31.6792 15.4722L31.9334 16.6113C32.0606 17.2222 32.1743 17.8825 32.2746 18.5858C32.4252 19.6293 32.5389 20.7816 32.6192 22.0363C31.4818 22.3929 30.582 23.2778 30.2207 24.4038ZM46.7027 28.4024C48.5827 29.1618 49.4525 29.9642 49.4525 30.4528C49.4525 30.9712 48.4624 31.8528 46.3114 32.6519C45.6992 32.8797 44.9899 33.1043 44.1838 33.3057C43.5482 33.4675 42.8524 33.6193 42.093 33.7547C41.4373 33.8703 40.7348 33.976 39.9855 34.0651C39.2261 34.1575 38.4199 34.2335 37.5601 34.2896C37.7174 35.0226 37.888 35.6665 38.0619 36.2278C38.1989 36.2173 38.3353 36.2063 38.4712 36.1949C38.8067 36.1665 39.1393 36.1352 39.4703 36.1024C40.2096 36.0231 40.9355 35.9273 41.638 35.8184C41.434 36.6142 41.2099 37.3142 40.9756 37.9184C40.1661 40.0415 39.273 41.0189 38.7477 41.0189C38.2526 41.0189 37.4398 40.1604 36.6703 38.3047C36.4395 37.7467 36.212 37.0962 36.0013 36.35C35.9243 36.0859 35.8541 35.8151 35.7804 35.5278C35.6935 35.1679 35.6066 34.7882 35.5263 34.3887C35.3991 33.7778 35.2854 33.1174 35.1851 32.4141C35.0345 31.3708 34.9208 30.2184 34.8405 28.9637C35.9778 28.6071 36.8777 27.7222 37.239 26.5962C38.5102 26.6722 39.6777 26.7877 40.7348 26.9363C41.4474 27.0354 42.1164 27.1476 42.7352 27.2731C42.7319 27.4316 42.7252 27.5901 42.7186 27.7453C42.6985 28.2769 42.6717 28.7854 42.6349 29.2806C42.578 30.1293 42.5011 30.925 42.4074 31.6745C43.1902 31.516 43.876 31.3443 44.4715 31.166C44.4935 30.9505 44.5147 30.7341 44.5349 30.5167C44.5577 30.2713 44.5791 30.0245 44.5986 29.7759C44.6554 29.1057 44.6956 28.4255 44.7224 27.742C45.4784 27.95 46.1374 28.1745 46.7027 28.4024ZM44.7224 23.258C44.4547 23.3339 44.1804 23.4033 43.8894 23.4759L42.7352 23.7269C42.1164 23.8524 41.4474 23.9646 40.7348 24.0637C39.6777 24.2123 38.5102 24.3278 37.239 24.4038C36.8777 23.2811 35.9812 22.3929 34.8405 22.0363C34.9174 20.7816 35.0345 19.6293 35.1851 18.5858C35.2854 17.8825 35.3991 17.2222 35.5263 16.6113C35.6066 16.613 35.687 16.6155 35.767 16.6184C35.8468 16.6212 35.9261 16.6245 36.0046 16.6278C36.5432 16.6476 37.0584 16.6741 37.5601 16.7104C38.4199 16.7665 39.2261 16.8425 39.9855 16.9349C39.8249 16.1623 39.6509 15.4854 39.4703 14.8976C39.3433 14.885 39.216 14.8727 39.0885 14.8606C38.749 14.8285 38.4072 14.7986 38.0619 14.7722C37.3828 14.716 36.6938 14.6764 36.0013 14.65C36.212 13.9038 36.4395 13.2533 36.6703 12.6953C37.4398 10.8396 38.2526 9.98113 38.7477 9.98113C39.273 9.98113 40.1661 10.9585 40.9756 13.0816C41.2099 13.6858 41.434 14.3859 41.638 15.1816C41.8019 15.809 41.9559 16.4957 42.093 17.2453C42.2101 17.8925 42.3171 18.5858 42.4074 19.3255C42.5011 20.075 42.578 20.8707 42.6349 21.7193C43.3776 21.5642 44.0299 21.3958 44.5986 21.2241C44.5617 20.7552 44.5183 20.2929 44.4715 19.834C44.3912 19.1042 44.2942 18.3877 44.1838 17.6943C44.9899 17.8957 45.6992 18.117 46.3114 18.3481C48.4624 19.1472 49.4525 20.0288 49.4525 20.5472C49.4525 21.0358 48.5827 21.8382 46.7027 22.5976C46.1374 22.8255 45.4784 23.05 44.7224 23.258Z" fill="white"/>
<path d="M65.0849 21.8415C63.3855 21.8415 62.3251 22.6042 61.7831 23.499V18.4703H59.4849V32.2821H61.7831V26.834C61.7831 24.7571 62.6529 23.6906 64.2151 23.6906C66.0484 23.6906 66.2423 25.0047 66.2423 26.5467V32.2821H68.5406V25.9193C68.5406 23.4231 67.654 21.8415 65.0849 21.8415Z" fill="white"/>
<path d="M74.649 30.6642C76.1912 30.6642 76.984 29.6538 76.984 27.5769V22.0297H79.2989V32.2788H76.984V30.8325C76.3852 31.8231 75.4786 32.5264 73.8194 32.5264C71.2703 32.5264 70.3838 30.9481 70.3838 28.4321V22.033H72.682V27.8245C72.682 29.3698 72.8727 30.6642 74.649 30.6642Z" fill="white"/>
<path d="M93.272 21.8415C91.8235 21.8415 90.5891 22.4127 89.7595 23.6146C89.2978 22.492 88.3512 21.8415 86.7287 21.8415C85.1062 21.8415 84.1428 22.6042 83.6009 23.499V22.033H81.3027V32.2821H83.6009V26.8141C83.6009 24.7571 84.4305 23.6906 85.859 23.6906C87.6352 23.6906 87.846 25.0047 87.846 26.5467V32.2821H90.1442V26.8141C90.1442 24.7571 90.9738 23.6906 92.4022 23.6906C94.1786 23.6906 94.3894 25.0047 94.3894 26.5467V32.2821H96.6875V25.9193C96.6875 23.4231 95.781 21.8415 93.272 21.8415Z" fill="white"/>
<path fill-rule="evenodd" clip-rule="evenodd" d="M102.873 21.7854C105.77 21.7854 107.255 23.0797 107.255 26.0514H107.252V28.3561C107.252 29.9542 107.349 31.3278 107.543 32.2788H105.228C105.151 31.7835 105.111 31.3642 105.111 30.925C104.415 31.9915 103.278 32.5264 101.578 32.5264C99.6313 32.5264 98.0089 31.4203 98.0089 29.5547C98.0089 27.0981 100.806 26.3354 104.994 25.9359V25.708C104.994 24.1099 104.127 23.5189 102.853 23.5189C101.578 23.5189 100.789 24.166 100.692 25.3085H98.4337C98.6077 23.1953 100.344 21.7854 102.873 21.7854ZM102.257 30.8722C103.763 30.8722 105.094 30.2052 105.094 27.9962V27.501C102.274 27.7651 100.461 28.1646 100.461 29.4424C100.461 30.301 101.177 30.8722 102.257 30.8722Z" fill="white"/>
<path d="M114.805 21.8415C113.106 21.8415 112.046 22.6042 111.504 23.499V22.033H109.205V32.2821H111.504V26.834C111.504 24.7571 112.373 23.6906 113.936 23.6906C115.769 23.6906 115.963 25.0047 115.963 26.5467V32.2821H118.261V25.9193C118.261 23.4231 117.375 21.8415 114.805 21.8415Z" fill="white"/>
<path d="M127.25 19.3651L127.246 19.3618V19.3651H124.952V22.033H123.312V23.7467H124.952V29.5943C124.952 31.8231 125.57 32.2788 127.768 32.2788H129.331V30.5255H128.444C127.42 30.5255 127.246 30.2778 127.246 29.2476V23.7434H129.331V22.0297H127.246V19.3651H127.25Z" fill="white"/>
<path fill-rule="evenodd" clip-rule="evenodd" d="M134.907 21.8052C131.993 21.8052 129.678 23.9019 129.678 27.1377C129.678 30.3736 131.686 32.5297 135.004 32.5297C137.359 32.5297 139.192 31.2354 139.848 29.2146H137.61C137.185 30.0731 136.376 30.6608 134.967 30.6608C133.636 30.6608 132.264 29.8783 132.034 27.7849H139.945C139.965 27.5934 139.965 27.4415 139.965 27.2896C139.965 24.166 138.015 21.8019 134.907 21.8019V21.8052ZM132.07 26.167C132.378 24.2255 133.673 23.6509 134.907 23.6509C136.453 23.6509 137.473 24.6811 137.59 26.167H132.07Z" fill="white"/>
<path d="M143.19 27.1377C143.19 29.6141 144.521 30.6608 145.91 30.6608C147.261 30.6608 148.188 29.8222 148.419 28.7754H150.677C150.191 31.1396 148.091 32.5297 145.792 32.5297C142.665 32.5297 140.775 30.2415 140.775 27.1377C140.775 24.034 142.802 21.8052 145.91 21.8052C148.281 21.8052 150.175 23.3273 150.559 25.5759H148.322C148.071 24.3773 147.107 23.6906 145.91 23.6906C144.501 23.6906 143.19 24.6613 143.19 27.1377Z" fill="white"/>
<path d="M157.544 21.8415C155.845 21.8415 154.784 22.6042 154.243 23.499V18.4703H151.944V32.2821H154.243V26.834C154.243 24.7571 155.112 23.6906 156.675 23.6906C158.508 23.6906 158.702 25.0047 158.702 26.5467V32.2821H161V25.9193C161 23.4231 160.113 21.8415 157.544 21.8415Z" fill="white"/>
<path d="M123.011 30.8722C123.011 31.6928 122.337 32.358 121.506 32.358C120.675 32.358 120.001 31.6928 120.001 30.8722C120.001 30.0515 120.675 29.3863 121.506 29.3863C122.337 29.3863 123.011 30.0515 123.011 30.8722Z" fill="white"/>
</svg>
