<svg width="24" height="24" viewBox="0 0 24 24" fill="none" xmlns="http://www.w3.org/2000/svg">
<path d="M0 12C0 5.37258 5.37258 0 12 0C18.6274 0 24 5.37258 24 12C24 18.6274 18.6274 24 12 24C5.37258 24 0 18.6274 0 12Z" fill="#F5F5F5"/>
<path d="M12.1044 3.66663V9.80157C12.1044 9.82762 12.0784 9.85366 12.0523 9.85366C11.87 9.93328 11.7138 10.0121 11.5315 10.091C11.2971 10.1959 11.0366 10.3016 10.8023 10.4333L9.94284 10.8277L9.23968 11.1439L8.38027 11.539C8.14588 11.6447 7.9115 11.7496 7.65107 11.8813C7.46877 11.9602 7.26043 12.0658 7.07813 12.1447C7.05209 12.1447 7.05209 12.1707 7.02604 12.1447H7C7.07813 12.013 7.15626 11.9073 7.23439 11.7764C7.65107 11.065 8.0938 10.3544 8.51048 9.64308C8.95321 8.8804 9.42198 8.11623 9.86471 7.3528C10.2814 6.64221 10.6981 5.93161 11.1148 5.24705C11.4273 4.7195 11.7398 4.22022 12.0263 3.69267C12.0784 3.69267 12.0784 3.66663 12.1044 3.66663C12.1044 3.66663 12.0784 3.66663 12.1044 3.66663Z" fill="#8C8C8C"/>
<path d="M17.1567 12.1447C16.766 12.4081 16.3494 12.6447 15.9587 12.8813C14.6826 13.6455 13.4326 14.3829 12.1565 15.1463C12.1304 15.1463 12.1304 15.1724 12.1044 15.1724C12.0783 15.1724 12.0783 15.1463 12.0783 15.1463V9.85368C12.0783 9.82764 12.1044 9.82764 12.1304 9.82764C12.2346 9.87972 12.3388 9.9333 12.469 9.98538C12.7815 10.1439 13.1201 10.2756 13.4326 10.4333C13.719 10.565 13.9795 10.6967 14.2659 10.8016C14.5524 10.9333 14.8128 11.065 15.0993 11.1967C15.3337 11.3024 15.5941 11.4073 15.8285 11.539C16.0629 11.6447 16.3233 11.7496 16.5577 11.8813C16.74 11.9602 16.9223 12.0658 17.1306 12.1447C17.1306 12.1187 17.1306 12.1447 17.1567 12.1447Z" fill="#141414"/>
<path d="M12.1044 20.3333C12.0784 20.3333 12.1044 20.3333 12.1044 20.3333C12.0784 20.3333 12.0784 20.3333 12.0523 20.3065C11.5315 19.5699 11.0367 18.8586 10.5158 18.1212L8.95323 15.9098C8.45842 15.1992 7.93756 14.4886 7.44275 13.7504L7.0521 13.1976C7.0521 13.1716 7.02606 13.1716 7.02606 13.1455C7.0521 13.1455 7.0521 13.1716 7.07815 13.1716C7.7813 13.5927 8.5105 14.0139 9.21366 14.435C10.021 14.9358 10.8544 15.4097 11.6617 15.9098C11.7919 15.9886 11.9482 16.0675 12.0784 16.1464C12.1044 16.1464 12.1044 16.1732 12.1044 16.1992V20.3333Z" fill="#8C8C8C"/>
<path d="M7 11.8692C7 11.8431 7 11.8431 7 11.8692C7.26043 11.7375 7.52086 11.6325 7.78128 11.5008L8.79696 11.0269C9.05738 10.8952 9.31781 10.7902 9.57824 10.6585C9.94284 10.474 10.3335 10.3163 10.6981 10.1317C10.9585 10.0261 11.2189 9.89436 11.4794 9.78945C11.6617 9.71057 11.844 9.6317 12.0263 9.52604C12.0523 9.52604 12.0523 9.5 12.0784 9.5V14.8708C12.0523 14.8976 12.0523 14.8708 12.0263 14.8708C11.9481 14.8187 11.87 14.7919 11.8179 14.7391L7.05209 11.8959C7.02604 11.8692 7 11.8692 7 11.8692ZM17.0786 12.8439C17.0786 12.8699 17.0786 12.8699 17.0525 12.896C15.542 15.0553 14.0316 17.1878 12.5211 19.3472C12.3648 19.5838 12.2086 19.7944 12.0523 20.0317V15.8448C12.3909 15.6342 12.7294 15.4236 13.068 15.2398L17.0525 12.8699C17.0525 12.8439 17.0786 12.8439 17.0786 12.8439Z" fill="#3C3C3B"/>
<path d="M12.1044 9.82755V3.69409L17.1046 12.0665C17.1307 12.0925 17.1567 12.1186 17.1567 12.1454C17.0525 12.0933 16.9484 12.0397 16.8182 11.9876C16.6879 11.9348 16.5577 11.8559 16.4275 11.8031C16.3494 11.777 16.2713 11.7242 16.1671 11.6974C16.0369 11.6453 15.8806 11.5657 15.7504 11.5136C15.6723 11.4869 15.5941 11.4348 15.516 11.408L14.9691 11.1714C14.8649 11.1185 14.7868 11.0925 14.6826 11.0397C14.5524 10.9868 14.4222 10.908 14.292 10.8551C14.2139 10.8291 14.1357 10.7763 14.0576 10.7502L13.5107 10.5128C13.4065 10.4608 13.3284 10.434 13.2242 10.3811C13.094 10.3291 12.9638 10.2494 12.8336 10.1966C12.7555 10.1445 12.6513 10.1177 12.5732 10.0657L12.1044 9.82829V9.82755Z" fill="#343434"/>
</svg>
