<svg width="64" height="64" viewBox="0 0 64 64" fill="none" xmlns="http://www.w3.org/2000/svg">
<g id="logo">
<g id="silk-0.4">
<path d="M41.5411 22.8537L46.6667 18.1635C43.5902 12.7174 40.2279 7.26164 30.8609 7L25.8889 11.5497C35.2347 11.7823 38.4646 17.3882 41.5464 22.8537H41.5411Z" fill="#111111"/>
<path d="M17.9444 18.8976C27.2245 19.1315 30.3875 24.8522 33.4408 30.3829C36.5255 35.9623 39.7041 41.7269 49.0938 41.7561L54 37.1756C44.8765 37.1756 41.8754 31.7814 38.7176 26.0606C35.6016 20.413 32.3761 14.5851 22.8507 14.3171L17.9444 18.8976Z" fill="#111111"/>
<path d="M10 26.2146C19.2801 26.4485 22.443 32.1693 25.4964 37.6999C28.581 43.2794 31.7596 49.0439 41.1493 49.0732L46.0556 44.4927C36.9321 44.4927 33.9309 39.0984 30.7732 33.3777C27.6572 27.7301 24.4316 21.9022 14.9062 21.6341L10 26.2146Z" fill="#111111"/>
<path d="M17.3333 45.848C20.4349 51.3512 23.7008 56.9709 33.1274 57L38.1111 52.4343C28.8436 52.4343 25.795 47.0575 22.5874 41.3552C22.5503 41.2872 22.5079 41.2143 22.4708 41.1463L17.3386 45.848H17.3333Z" fill="#111111"/>
</g>
</g>
</svg>
