<svg width="24" height="25" viewBox="0 0 24 25" fill="none" xmlns="http://www.w3.org/2000/svg">
<path d="M16 21.5127V19.5127C16 18.4518 15.5786 17.4344 14.8284 16.6843C14.0783 15.9341 13.0609 15.5127 12 15.5127H6C4.93913 15.5127 3.92172 15.9341 3.17157 16.6843C2.42143 17.4344 2 18.4518 2 19.5127V21.5127M16 11.5127L18 13.5127L22 9.5127M13 7.5127C13 9.72183 11.2091 11.5127 9 11.5127C6.79086 11.5127 5 9.72183 5 7.5127C5 5.30356 6.79086 3.5127 9 3.5127C11.2091 3.5127 13 5.30356 13 7.5127Z" stroke="white" stroke-width="2" stroke-linecap="round" stroke-linejoin="round"/>
</svg>
